<svg xmlns="http://www.w3.org/2000/svg" viewBox="0 0 192 21.292814" height="21.293" width="192"><path d="M0 10.63V.13h8.63l1.974 6.75 1.974 6.75 1.86-6.75L16.296.13H25v21h-3c-2.942 0-3.002-.1-3.08-5.25l-.081-5.25-1.548 5.25c-1.463 4.966-1.727 5.25-4.86 5.25-3.084 0-3.416-.331-4.769-4.75l-1.454-4.75-.104 4.75c-.1 4.588-.206 4.75-3.104 4.75H0zm31.306 8.087C28.845 16.6 28.5 15.607 28.5 10.63c0-4.976.345-5.97 2.806-8.086 3.943-3.392 11.445-3.392 15.388 0C49.155 4.66 49.5 5.654 49.5 10.63c0 4.977-.345 5.97-2.806 8.087-3.943 3.392-11.445 3.392-15.388 0zm10.123-4.158C42.293 13.695 43 11.927 43 10.63c0-2.316-2.316-5.5-4-5.5-1.684 0-4 3.184-4 5.5s2.316 5.5 4 5.5c.471 0 1.564-.707 2.429-1.571zM53 10.63V.13h6.577c5.936 0 6.862.285 9.5 2.923 3.363 3.363 3.895 8.297 1.413 13.097-2.065 3.992-4.33 4.98-11.424 4.98H53zm10.429 3.929c2.794-2.795 1.035-9.429-2.5-9.429-.511 0-.929 2.475-.929 5.5 0 5.715.765 6.592 3.429 3.929zm13.745 4.257C75.307 16.829 75 15.344 75 8.316V.13h6v6.31c0 6.94 1.523 10.194 4.276 9.138C86.693 15.034 87 13.598 87 7.523V.13h7v8.046c0 7.209-.255 8.3-2.455 10.5-3.427 3.427-11.211 3.503-14.37.14zm20.493 1.648c-.367-.367-.667-1.99-.667-3.607 0-2.28.358-2.803 1.593-2.33 3.7 1.42 6.229 1.701 6.812.756.343-.555-.245-1.285-1.308-1.622C100.161 12.411 97 9.051 97 6.114c0-3.824 3.252-5.988 8.973-5.968 6.157.02 7.458.944 5.96 4.232-1.054 2.314-1.457 2.466-4.102 1.544-1.613-.563-3.248-.684-3.632-.27-.384.414-.158.946.503 1.183 3.395 1.215 7.837 5.137 8.13 7.178.2 1.383-.575 3.279-1.924 4.715-1.817 1.934-3.262 2.402-7.416 2.402-2.837 0-5.459-.3-5.825-.666zm21.583-5.09c-2.635-6.82-2.687-7.244-.886-7.244.75 0 2.168 2.104 3.15 4.675l1.785 4.676 1.728-4.426c.95-2.433 2.465-4.571 3.365-4.75 1.418-.283 1.321.521-.723 6-3.229 8.654-5.383 8.928-8.419 1.07zm13.448 3.975c-2.234-2.469-2.166-7.485.13-9.564 2.132-1.929 7.239-2.188 8.972-.455.66.66 1.2 2.235 1.2 3.5 0 2.06-.471 2.3-4.5 2.3-4.656 0-5.556.879-3.041 2.966.913.758 2.642.952 4.619.517 2.423-.532 3.055-.378 2.713.662-.733 2.227-8.096 2.281-10.093.074zM140 12.237c0-1.731-3.362-2.174-4.892-.643-1.382 1.382-1.214 1.536 1.678 1.536 1.768 0 3.214-.401 3.214-.893zm6 2.557V8.458l4-.156c4.438-.174 5.19.832 1.75 2.341-1.803.791-2.31 1.932-2.555 5.737-.214 3.335-.735 4.75-1.75 4.75-1.108 0-1.445-1.477-1.445-6.336zm9 5.4c0-.515 1.428-1.078 3.173-1.25 4.3-.425 4.563-2.13.597-3.874-2.438-1.073-3.27-2.076-3.27-3.94 0-2.274.383-2.5 4.25-2.5 2.337 0 4.138.45 4 1-.138.55-1.229.876-2.425.724-3.73-.473-3.662 1.738.103 3.31 2.677 1.12 3.572 2.09 3.572 3.873 0 1.309-.712 2.653-1.582 2.986-2.465.947-8.418.713-8.418-.33zm12.974-1.633c-.536-1.408-.974-4.332-.974-6.496 0-3.233.347-3.935 1.948-3.935 1.64 0 1.995.817 2.25 5.172.166 2.844.812 5.34 1.436 5.544 2.124.7 4.366-2.786 4.366-6.787 0-2.825.421-3.929 1.5-3.929 1.176 0 1.5 1.375 1.5 6.369v6.368l-5.526.128c-5.063.116-5.608-.088-6.5-2.434zM182 20.194c0-.515 1.428-1.078 3.173-1.25 4.3-.425 4.563-2.13.597-3.874-2.438-1.073-3.27-2.076-3.27-3.94 0-2.274.383-2.5 4.25-2.5 2.337 0 4.138.45 4 1-.138.55-1.229.876-2.425.724-3.73-.473-3.662 1.738.103 3.31 2.677 1.12 3.572 2.09 3.572 3.873 0 1.309-.712 2.653-1.582 2.986-2.465.947-8.418.713-8.418-.33z" fill="#fffefe"/></svg>